<?xml version="1.0" encoding="iso-8859-1"?>
<!-- Uploaded to: SVG Repo, www.svgrepo.com, Generator: SVG Repo Mixer Tools -->
<svg height="800px" width="800px" version="1.1" id="Layer_1" xmlns="http://www.w3.org/2000/svg" xmlns:xlink="http://www.w3.org/1999/xlink" 
	 viewBox="0 0 512 512" xml:space="preserve">
<g transform="translate(1 1)">
	<path style="fill:#FFFFFF;" d="M470.893,485.4H39.107c-17.067,0-31.573-14.507-31.573-31.573v-309.76h494.933v309.76
		C502.467,470.893,487.96,485.4,470.893,485.4L470.893,485.4z"/>
	<path style="fill:#0096E6;" d="M470.893,493.933H39.107C16.92,493.933-1,476.013-1,453.827V135.533h512v318.293
		C511,476.013,493.08,493.933,470.893,493.933z M16.067,152.6v301.227c0,12.8,10.24,23.04,23.04,23.04H470.04
		c12.8,0,23.04-10.24,23.04-23.04V152.6H16.067z"/>
	<polygon style="fill:#D0E8F9;" points="16.067,24.6 493.933,24.6 493.933,144.067 16.067,144.067 	"/>
	<g>
		<path style="fill:#0096E6;" d="M502.467,152.6H7.533V16.067h494.933V152.6z M24.6,135.533h460.8v-102.4H24.6V135.533z"/>
		<path style="fill:#0096E6;" d="M255,374.467c-61.44,0-110.933-49.493-110.933-110.933v-51.2c0-5.12,3.413-8.533,8.533-8.533
			c5.12,0,8.533,3.413,8.533,8.533v51.2c0,52.053,41.813,93.867,93.867,93.867s93.867-41.813,93.867-93.867v-51.2
			c0-5.12,3.413-8.533,8.533-8.533s8.533,3.413,8.533,8.533v51.2C365.933,324.973,316.44,374.467,255,374.467z M383,220.867
			c-5.12,0-8.533-3.413-8.533-8.533c0-9.387-7.68-17.067-17.067-17.067s-17.067,7.68-17.067,17.067c0,5.12-3.413,8.533-8.533,8.533
			s-8.533-3.413-8.533-8.533c0-18.773,15.36-34.133,34.133-34.133s34.133,15.36,34.133,34.133
			C391.533,217.453,388.12,220.867,383,220.867z M178.2,220.867c-5.12,0-8.533-3.413-8.533-8.533c0-9.387-7.68-17.067-17.067-17.067
			s-17.067,7.68-17.067,17.067c0,5.12-3.413,8.533-8.533,8.533s-8.533-3.413-8.533-8.533c0-18.773,15.36-34.133,34.133-34.133
			s34.133,15.36,34.133,34.133C186.733,217.453,183.32,220.867,178.2,220.867z M476.867,152.6c-2.56,0-5.12-0.853-6.827-3.413
			L434.2,101.4v42.667c0,5.12-3.413,8.533-8.533,8.533s-8.533-3.413-8.533-8.533V75.8c0,0,0,0,0-0.853s0-1.707,0.853-2.56
			c0,0,0-0.853,0.853-0.853c0-0.853,0.853-1.707,1.707-1.707l51.2-51.2c3.413-3.413,8.533-3.413,11.947,0
			c3.413,3.413,3.413,8.533,0,11.947l-46.08,46.08l46.933,62.293c2.56,3.413,1.707,9.387-1.707,11.947
			C480.28,151.747,478.573,152.6,476.867,152.6z M33.133,152.6c-1.707,0-3.413-0.853-5.12-1.707
			c-3.413-2.56-4.267-8.533-1.707-11.947L73.24,76.653l-46.08-46.08c-3.413-3.413-3.413-8.533,0-11.947s8.533-3.413,11.947,0
			l51.2,51.2c0.853,0.853,0.853,0.853,1.707,1.707c0,0,0,0.853,0.853,0.853c0,0.853,0,1.707,0,2.56c0,0,0,0,0,0.853v68.267
			c0,5.12-3.413,8.533-8.533,8.533s-8.533-3.413-8.533-8.533V101.4l-35.84,47.787C38.253,151.747,35.693,152.6,33.133,152.6z"/>
		<path style="fill:#0096E6;" d="M212.333,67.267c0,5.12-3.413,8.533-8.533,8.533c-5.12,0-8.533-3.413-8.533-8.533
			s3.413-8.533,8.533-8.533C208.92,58.733,212.333,62.147,212.333,67.267"/>
		<path style="fill:#0096E6;" d="M237.933,41.667c0,5.12-3.413,8.533-8.533,8.533c-5.12,0-8.533-3.413-8.533-8.533
			s3.413-8.533,8.533-8.533C234.52,33.133,237.933,36.547,237.933,41.667"/>
		<path style="fill:#0096E6;" d="M237.933,92.867c0,5.12-3.413,8.533-8.533,8.533c-5.12,0-8.533-3.413-8.533-8.533
			s3.413-8.533,8.533-8.533C234.52,84.333,237.933,87.747,237.933,92.867"/>
		<path style="fill:#0096E6;" d="M263.533,67.267c0,5.12-3.413,8.533-8.533,8.533s-8.533-3.413-8.533-8.533s3.413-8.533,8.533-8.533
			S263.533,62.147,263.533,67.267"/>
		<path style="fill:#0096E6;" d="M161.133,67.267c0,5.12-3.413,8.533-8.533,8.533c-5.12,0-8.533-3.413-8.533-8.533
			s3.413-8.533,8.533-8.533C157.72,58.733,161.133,62.147,161.133,67.267"/>
		<path style="fill:#0096E6;" d="M186.733,41.667c0,5.12-3.413,8.533-8.533,8.533c-5.12,0-8.533-3.413-8.533-8.533
			s3.413-8.533,8.533-8.533C183.32,33.133,186.733,36.547,186.733,41.667"/>
		<path style="fill:#0096E6;" d="M186.733,92.867c0,5.12-3.413,8.533-8.533,8.533c-5.12,0-8.533-3.413-8.533-8.533
			s3.413-8.533,8.533-8.533C183.32,84.333,186.733,87.747,186.733,92.867"/>
		<path style="fill:#0096E6;" d="M109.933,67.267c0,5.12-3.413,8.533-8.533,8.533c-5.12,0-8.533-3.413-8.533-8.533
			s3.413-8.533,8.533-8.533C106.52,58.733,109.933,62.147,109.933,67.267"/>
		<path style="fill:#0096E6;" d="M84.333,41.667c0,5.12-3.413,8.533-8.533,8.533s-8.533-3.413-8.533-8.533s3.413-8.533,8.533-8.533
			C80.92,33.133,84.333,36.547,84.333,41.667"/>
		<path style="fill:#0096E6;" d="M135.533,41.667c0,5.12-3.413,8.533-8.533,8.533s-8.533-3.413-8.533-8.533s3.413-8.533,8.533-8.533
			S135.533,36.547,135.533,41.667"/>
		<path style="fill:#0096E6;" d="M135.533,92.867c0,5.12-3.413,8.533-8.533,8.533s-8.533-3.413-8.533-8.533s3.413-8.533,8.533-8.533
			S135.533,87.747,135.533,92.867"/>
		<path style="fill:#0096E6;" d="M417.133,67.267c0,5.12-3.413,8.533-8.533,8.533c-5.12,0-8.533-3.413-8.533-8.533
			s3.413-8.533,8.533-8.533C413.72,58.733,417.133,62.147,417.133,67.267"/>
		<path style="fill:#0096E6;" d="M442.733,41.667c0,5.12-3.413,8.533-8.533,8.533c-5.12,0-8.533-3.413-8.533-8.533
			s3.413-8.533,8.533-8.533C439.32,33.133,442.733,36.547,442.733,41.667"/>
		<path style="fill:#0096E6;" d="M289.133,41.667c0,5.12-3.413,8.533-8.533,8.533s-8.533-3.413-8.533-8.533s3.413-8.533,8.533-8.533
			S289.133,36.547,289.133,41.667"/>
		<path style="fill:#0096E6;" d="M289.133,92.867c0,5.12-3.413,8.533-8.533,8.533s-8.533-3.413-8.533-8.533s3.413-8.533,8.533-8.533
			S289.133,87.747,289.133,92.867"/>
		<path style="fill:#0096E6;" d="M314.733,67.267c0,5.12-3.413,8.533-8.533,8.533s-8.533-3.413-8.533-8.533s3.413-8.533,8.533-8.533
			S314.733,62.147,314.733,67.267"/>
		<path style="fill:#0096E6;" d="M365.933,67.267c0,5.12-3.413,8.533-8.533,8.533s-8.533-3.413-8.533-8.533s3.413-8.533,8.533-8.533
			S365.933,62.147,365.933,67.267"/>
		<path style="fill:#0096E6;" d="M212.333,118.467c0,5.12-3.413,8.533-8.533,8.533c-5.12,0-8.533-3.413-8.533-8.533
			s3.413-8.533,8.533-8.533C208.92,109.933,212.333,113.347,212.333,118.467"/>
		<path style="fill:#0096E6;" d="M263.533,118.467c0,5.12-3.413,8.533-8.533,8.533s-8.533-3.413-8.533-8.533
			s3.413-8.533,8.533-8.533S263.533,113.347,263.533,118.467"/>
		<path style="fill:#0096E6;" d="M161.133,118.467c0,5.12-3.413,8.533-8.533,8.533c-5.12,0-8.533-3.413-8.533-8.533
			s3.413-8.533,8.533-8.533C157.72,109.933,161.133,113.347,161.133,118.467"/>
		<path style="fill:#0096E6;" d="M109.933,118.467c0,5.12-3.413,8.533-8.533,8.533c-5.12,0-8.533-3.413-8.533-8.533
			s3.413-8.533,8.533-8.533C106.52,109.933,109.933,113.347,109.933,118.467"/>
		<path style="fill:#0096E6;" d="M417.133,118.467c0,5.12-3.413,8.533-8.533,8.533c-5.12,0-8.533-3.413-8.533-8.533
			s3.413-8.533,8.533-8.533C413.72,109.933,417.133,113.347,417.133,118.467"/>
		<path style="fill:#0096E6;" d="M314.733,118.467c0,5.12-3.413,8.533-8.533,8.533s-8.533-3.413-8.533-8.533
			s3.413-8.533,8.533-8.533S314.733,113.347,314.733,118.467"/>
		<path style="fill:#0096E6;" d="M365.933,118.467c0,5.12-3.413,8.533-8.533,8.533s-8.533-3.413-8.533-8.533
			s3.413-8.533,8.533-8.533S365.933,113.347,365.933,118.467"/>
		<path style="fill:#0096E6;" d="M340.333,41.667c0,5.12-3.413,8.533-8.533,8.533s-8.533-3.413-8.533-8.533s3.413-8.533,8.533-8.533
			S340.333,36.547,340.333,41.667"/>
		<path style="fill:#0096E6;" d="M391.533,41.667c0,5.12-3.413,8.533-8.533,8.533c-5.12,0-8.533-3.413-8.533-8.533
			s3.413-8.533,8.533-8.533C388.12,33.133,391.533,36.547,391.533,41.667"/>
		<path style="fill:#0096E6;" d="M340.333,92.867c0,5.12-3.413,8.533-8.533,8.533s-8.533-3.413-8.533-8.533s3.413-8.533,8.533-8.533
			S340.333,87.747,340.333,92.867"/>
		<path style="fill:#0096E6;" d="M391.533,92.867c0,5.12-3.413,8.533-8.533,8.533c-5.12,0-8.533-3.413-8.533-8.533
			s3.413-8.533,8.533-8.533C388.12,84.333,391.533,87.747,391.533,92.867"/>
	</g>
</g>
</svg>